<svg width="64" height="64" viewBox="0 0 64 64" fill="none" xmlns="http://www.w3.org/2000/svg">
<circle cx="32" cy="32" r="32" fill="#2563EB"/>
<path d="M30.8316 22.1247C30.811 22.0618 30.7598 22.017 30.7001 22.0128C28.8477 21.8834 27.295 22.757 25.6441 23.5891C25.004 23.9117 24.3646 24.234 23.719 24.5009L12.1097 29.3001C9.27471 30.491 9.30796 33.4669 12.1429 34.6578L23.9511 39.618C24.5554 39.8718 25.1544 40.1723 25.754 40.473C27.1657 41.1812 28.5812 41.8912 30.0794 41.9996C30.1846 42.0073 30.26 41.8913 30.2199 41.7821C30.0837 41.4112 29.907 41.0581 29.6923 40.7312L29.2226 40.0162C28.021 38.1865 28.0381 35.6893 29.2647 33.8805L31.8798 30.0244C33.0971 28.2295 33.0797 25.7408 31.8375 23.9675L31.5284 23.5262C31.2298 23.1 30.9956 22.6265 30.8316 22.1247Z" fill="white"/>
<path d="M33.2013 41.9788C35.0445 42.1497 36.6758 41.2571 38.3559 40.4103C38.996 40.0878 39.6354 39.7655 40.2811 39.4986L51.8903 34.6995C54.7253 33.5087 54.6921 30.5328 51.8571 29.342L40.0489 24.3819C39.4446 24.1281 38.8456 23.8277 38.246 23.5269C36.8343 22.8188 35.4188 22.1088 33.9206 22.0004C33.8154 21.9927 33.74 22.1087 33.7801 22.2179C33.9163 22.5888 34.093 22.9419 34.3077 23.2687L34.7774 23.9838C35.979 25.8134 35.9619 28.3105 34.7353 30.1192L32.1202 33.9752C30.9029 35.7701 30.9203 38.2587 32.1625 40.032L32.4716 40.4732C32.7908 40.9288 33.0364 41.4383 33.2013 41.9788Z" fill="white"/>
</svg>
